<svg xmlns="http://www.w3.org/2000/svg" viewBox="0 0 500 500"><g id="freepik--background-simple--inject-51"><path d="M472.73,202.68a798.19,798.19,0,0,0-38.81-70.48C412.51,97.51,384.5,65,347.83,44.47c-85.07-47.58-183.06-29-247.66,25.86S88.32,195.51,76.48,248.27,27,299,17.26,375.51,117.4,497.58,202.46,477.92,288.6,423.09,360.75,421,476,397.23,491,316.54c5.29-28.35,5.85-59.17-5.71-86.25C481.41,221.11,477.19,211.88,472.73,202.68Z" style="fill:#C53F3F"></path><path d="M472.73,202.68a798.19,798.19,0,0,0-38.81-70.48C412.51,97.51,384.5,65,347.83,44.47c-85.07-47.58-183.06-29-247.66,25.86S88.32,195.51,76.48,248.27,27,299,17.26,375.51,117.4,497.58,202.46,477.92,288.6,423.09,360.75,421,476,397.23,491,316.54c5.29-28.35,5.85-59.17-5.71-86.25C481.41,221.11,477.19,211.88,472.73,202.68Z" style="fill:#fff;opacity:0.7000000000000001"></path></g><g id="freepik--Icons--inject-51"><circle cx="407.66" cy="173.24" r="21.51" transform="translate(-29.06 99.25) rotate(-13.41)" style="fill:none;stroke:#263238;stroke-linecap:round;stroke-linejoin:round"></circle><polygon points="423.54 173.24 399.05 159.1 399.05 187.38 423.54 173.24" style="fill:none;stroke:#263238;stroke-linecap:round;stroke-linejoin:round"></polygon><circle cx="81.24" cy="359.01" r="14.54" transform="translate(-281.54 296.68) rotate(-67.5)" style="fill:none;stroke:#263238;stroke-linecap:round;stroke-linejoin:round"></circle><polygon points="91.97 359.01 75.41 349.45 75.41 368.57 91.97 359.01" style="fill:none;stroke:#263238;stroke-linecap:round;stroke-linejoin:round"></polygon><rect x="82.89" y="181.43" width="12.28" height="40.22" style="fill:none;stroke:#263238;stroke-linecap:round;stroke-linejoin:round"></rect><rect x="104.37" y="181.43" width="12.28" height="40.22" style="fill:none;stroke:#263238;stroke-linecap:round;stroke-linejoin:round"></rect><rect x="155.75" y="42.09" width="28.01" height="28.01" style="fill:none;stroke:#263238;stroke-linecap:round;stroke-linejoin:round"></rect><rect x="327.61" y="174.25" width="17" height="17" style="fill:none;stroke:#263238;stroke-linecap:round;stroke-linejoin:round"></rect><rect x="48.98" y="246.31" width="17" height="17" style="fill:none;stroke:#263238;stroke-linecap:round;stroke-linejoin:round"></rect></g><g id="freepik--speech-bubble--inject-51"><circle cx="359.05" cy="87.66" r="34.09" style="fill:#fff;stroke:#263238;stroke-linecap:round;stroke-linejoin:round"></circle><polygon points="341.99 81.27 341.99 94.48 358.77 103.83 358.77 71.92 341.99 81.27" style="fill:#263238"></polygon><rect x="332.6" y="81.5" width="8.39" height="12.64" style="fill:#263238"></rect><path d="M372.35,99.44a18.84,18.84,0,0,0-.13-25.9" style="fill:none;stroke:#263238;stroke-linecap:round;stroke-linejoin:round;stroke-width:2px"></path><path d="M368.49,96.75a14.21,14.21,0,0,0-.33-20.7" style="fill:none;stroke:#263238;stroke-linecap:round;stroke-linejoin:round;stroke-width:2px"></path><path d="M364.62,93.18a9,9,0,0,0-.36-13.56" style="fill:none;stroke:#263238;stroke-linecap:round;stroke-linejoin:round;stroke-width:2px"></path><line x1="326.88" y1="99.79" x2="311.33" y2="105.17" style="fill:#fff;stroke:#263238;stroke-linecap:round;stroke-linejoin:round"></line></g><g id="freepik--Character--inject-51"><path d="M272,459.38V405.76H108.88V401h240a31.65,31.65,0,0,1,31.64,31.65h0a31.65,31.65,0,0,1-31.64,31.64h-240v-4.89Z" style="fill:#C53F3F;stroke:#263238;stroke-miterlimit:10"></path><path d="M344.56,432.63A31.65,31.65,0,0,0,312.91,401h9a31.65,31.65,0,0,1,0,63.29h-9A31.65,31.65,0,0,0,344.56,432.63Z" style="fill:#fff;stroke:#263238;stroke-linecap:round;stroke-linejoin:round"></path><path d="M115.45,458.52c10.28-31.24,0-52.6,0-52.6H270.39a26.71,26.71,0,0,1,26.71,26.71h0a26.71,26.71,0,0,1-26.71,26.71H115.17C115.26,459.07,115.36,458.8,115.45,458.52Z" style="fill:#fff;stroke:#263238;stroke-linecap:round;stroke-linejoin:round"></path><line x1="295.04" y1="422.35" x2="247.78" y2="422.35" style="fill:none;stroke:#263238;stroke-linecap:round;stroke-linejoin:round"></line><line x1="297.1" y1="432.63" x2="277.37" y2="432.63" style="fill:none;stroke:#263238;stroke-linecap:round;stroke-linejoin:round"></line><line x1="293.4" y1="444.96" x2="228.06" y2="444.96" style="fill:none;stroke:#263238;stroke-linecap:round;stroke-linejoin:round"></line><line x1="268.33" y1="419.07" x2="232.17" y2="419.07" style="fill:none;stroke:#263238;stroke-linecap:round;stroke-linejoin:round"></line><line x1="273.67" y1="432.63" x2="265.04" y2="432.63" style="fill:none;stroke:#263238;stroke-linecap:round;stroke-linejoin:round"></line><line x1="221.48" y1="444.96" x2="214.91" y2="444.96" style="fill:none;stroke:#263238;stroke-linecap:round;stroke-linejoin:round"></line><line x1="118.74" y1="417.01" x2="132.72" y2="417.01" style="fill:none;stroke:#263238;stroke-linecap:round;stroke-linejoin:round"></line><line x1="139.7" y1="426.05" x2="123.67" y2="426.05" style="fill:none;stroke:#263238;stroke-linecap:round;stroke-linejoin:round"></line><line x1="152.03" y1="440.85" x2="158.19" y2="440.85" style="fill:none;stroke:#263238;stroke-linecap:round;stroke-linejoin:round"></line><line x1="121.62" y1="440.85" x2="145.87" y2="440.85" style="fill:none;stroke:#263238;stroke-linecap:round;stroke-linejoin:round"></line><path d="M211.11,334V280.4H374.26v-4.77h-240a31.65,31.65,0,0,0-31.64,31.64h0a31.64,31.64,0,0,0,31.64,31.64h240V334Z" style="fill:#999;stroke:#263238;stroke-linecap:round;stroke-linejoin:round"></path><path d="M129,307.27a31.65,31.65,0,0,1,31.64-31.64h-9a31.64,31.64,0,1,0,0,63.28h9A31.64,31.64,0,0,1,129,307.27Z" style="fill:#fff;stroke:#263238;stroke-linecap:round;stroke-linejoin:round"></path><path d="M168.13,307.27a31.65,31.65,0,0,1,31.65-31.64h-9a31.64,31.64,0,1,0,0,63.28h9A31.64,31.64,0,0,1,168.13,307.27Z" style="fill:#fff;stroke:#263238;stroke-linecap:round;stroke-linejoin:round"></path><path d="M367.69,333.16c-10.28-31.23,0-52.6,0-52.6H212.76A26.71,26.71,0,0,0,186,307.27h0A26.71,26.71,0,0,0,212.76,334H368C367.88,333.71,367.78,333.45,367.69,333.16Z" style="fill:#fff;stroke:#263238;stroke-linecap:round;stroke-linejoin:round"></path><line x1="188.1" y1="297" x2="235.36" y2="297" style="fill:none;stroke:#263238;stroke-linecap:round;stroke-linejoin:round"></line><line x1="186.04" y1="307.27" x2="205.77" y2="307.27" style="fill:none;stroke:#263238;stroke-linecap:round;stroke-linejoin:round"></line><line x1="189.74" y1="319.6" x2="255.08" y2="319.6" style="fill:none;stroke:#263238;stroke-linecap:round;stroke-linejoin:round"></line><line x1="214.81" y1="293.71" x2="250.97" y2="293.71" style="fill:none;stroke:#263238;stroke-linecap:round;stroke-linejoin:round"></line><line x1="209.47" y1="307.27" x2="218.1" y2="307.27" style="fill:none;stroke:#263238;stroke-linecap:round;stroke-linejoin:round"></line><line x1="261.66" y1="319.6" x2="268.23" y2="319.6" style="fill:none;stroke:#263238;stroke-linecap:round;stroke-linejoin:round"></line><line x1="364.4" y1="291.66" x2="350.43" y2="291.66" style="fill:none;stroke:#263238;stroke-linecap:round;stroke-linejoin:round"></line><line x1="343.44" y1="300.7" x2="359.47" y2="300.7" style="fill:none;stroke:#263238;stroke-linecap:round;stroke-linejoin:round"></line><line x1="331.11" y1="315.49" x2="324.95" y2="315.49" style="fill:none;stroke:#263238;stroke-linecap:round;stroke-linejoin:round"></line><line x1="361.52" y1="315.49" x2="337.28" y2="315.49" style="fill:none;stroke:#263238;stroke-linecap:round;stroke-linejoin:round"></line><path d="M223.7,396.94V343.32H386.85v-4.77h-240a31.65,31.65,0,0,0-31.65,31.64h0a31.64,31.64,0,0,0,31.65,31.64h240v-4.89Z" style="fill:#263238;stroke:#263238;stroke-miterlimit:10"></path><path d="M141.58,370.19a31.65,31.65,0,0,1,31.65-31.64h-9a31.64,31.64,0,0,0,0,63.28h9A31.64,31.64,0,0,1,141.58,370.19Z" style="fill:#fff;stroke:#263238;stroke-linecap:round;stroke-linejoin:round"></path><path d="M180.72,370.19a31.65,31.65,0,0,1,31.64-31.64h-9a31.64,31.64,0,1,0,0,63.28h9A31.64,31.64,0,0,1,180.72,370.19Z" style="fill:#fff;stroke:#263238;stroke-linecap:round;stroke-linejoin:round"></path><path d="M380.27,396.08c-10.27-31.23,0-52.6,0-52.6H225.34a26.71,26.71,0,0,0-26.71,26.71h0a26.71,26.71,0,0,0,26.71,26.71H380.56C380.46,396.63,380.36,396.37,380.27,396.08Z" style="fill:#fff;stroke:#263238;stroke-linecap:round;stroke-linejoin:round"></path><line x1="200.68" y1="359.92" x2="247.94" y2="359.92" style="fill:none;stroke:#263238;stroke-linecap:round;stroke-linejoin:round"></line><line x1="198.63" y1="370.19" x2="218.35" y2="370.19" style="fill:none;stroke:#263238;stroke-linecap:round;stroke-linejoin:round"></line><line x1="202.33" y1="382.52" x2="267.67" y2="382.52" style="fill:none;stroke:#263238;stroke-linecap:round;stroke-linejoin:round"></line><line x1="227.39" y1="356.63" x2="263.56" y2="356.63" style="fill:none;stroke:#263238;stroke-linecap:round;stroke-linejoin:round"></line><line x1="222.05" y1="370.19" x2="230.68" y2="370.19" style="fill:none;stroke:#263238;stroke-linecap:round;stroke-linejoin:round"></line><line x1="274.24" y1="382.52" x2="280.82" y2="382.52" style="fill:none;stroke:#263238;stroke-linecap:round;stroke-linejoin:round"></line><line x1="376.98" y1="354.58" x2="363.01" y2="354.58" style="fill:none;stroke:#263238;stroke-linecap:round;stroke-linejoin:round"></line><line x1="356.02" y1="363.62" x2="372.05" y2="363.62" style="fill:none;stroke:#263238;stroke-linecap:round;stroke-linejoin:round"></line><line x1="343.69" y1="378.41" x2="337.53" y2="378.41" style="fill:none;stroke:#263238;stroke-linecap:round;stroke-linejoin:round"></line><line x1="374.11" y1="378.41" x2="349.86" y2="378.41" style="fill:none;stroke:#263238;stroke-linecap:round;stroke-linejoin:round"></line><path d="M222.15,226.83l-.72.76c-2.55,2.68-11.07,11.61-11.81,12.35s-3.79,3.21-3.79,3.21-8.74,6.41-7.87,8.16,23,17.48,39,20.69,53.62,2,60.91-1.75,16.32-16,20.1-23-4.66-12.53-9.9-14.57-18.36-8.74-20.4-10.49Z" style="fill:#263238;stroke:#263238;stroke-miterlimit:10"></path><path d="M243.71,126s-32.6,1.84-37.06,11.83,6,52.57,6.83,62.3,1.58,27.6,13.14,32.59,37.07,7.36,47.84,3.15,16-8.67,16-12.35-4.73-14.46-4.73-26.29,13.93-36,13.66-51-7.36-17.61-14.19-19.45S243.71,126,243.71,126Z" style="fill:#C53F3F;stroke:#263238;stroke-miterlimit:10"></path><path d="M245.94,207.63c7.21,6.25,16.89,13.85,23.79,16.19" style="fill:none;stroke:#263238;stroke-linecap:round;stroke-linejoin:round"></path><path d="M236.09,198.59s3.43,3.39,8.34,7.72" style="fill:none;stroke:#263238;stroke-linecap:round;stroke-linejoin:round"></path><path d="M268,227.6a32.33,32.33,0,0,0,5.16,1.22" style="fill:none;stroke:#263238;stroke-linecap:round;stroke-linejoin:round"></path><path d="M247.91,214.62a54,54,0,0,0,16.84,11.78" style="fill:none;stroke:#263238;stroke-linecap:round;stroke-linejoin:round"></path><path d="M258.87,263.55s-11.12-4.12-12.53-4.37C239.63,258,226,254.62,214,244c-14.57-12.82-42-31.18-51.87-32.93s-18.07,7.29-15.44,18.95,15.44,25.93,28.26,33.51,75.77,12.53,83.93,13.11,33.22,4.95,37.88,2,6.41-11.95,2.92-14.86-26.52,1.16-31.48.58S258.87,263.55,258.87,263.55Z" style="fill:#263238;stroke:#263238;stroke-miterlimit:10"></path><path d="M268.19,264.42c-3.29-.39-6.31-.64-8-.77l-2.52,12.92,1.18.09c8.16.58,33.22,4.95,37.88,2s6.41-11.95,2.92-14.86S273.15,265,268.19,264.42Z" style="fill:#fff;stroke:#263238;stroke-miterlimit:10"></path><path d="M217.2,263s36.71-14.27,55.95-22.43,39.34-20.4,54.49-20.4,7.29,19.23,2.92,27.39-23,12.82-37,15.74-50.42,7.57-70.82,11.07-33.8.87-41.67,0-13.11-1.17-14.57-6.41,5.83-10.49,13.12-11.66,16.61,4.66,21.27,5.83S217.2,263,217.2,263Z" style="fill:#fff;stroke:#263238;stroke-miterlimit:10"></path><path d="M327.64,220.13c-15.15,0-35.26,12.24-54.49,20.4-18.58,7.88-53.46,21.46-55.82,22.38A15.34,15.34,0,0,0,221,274.6l1.72-.27c20.4-3.5,56.83-8.16,70.82-11.07s32.63-7.58,37-15.74S342.79,220.13,327.64,220.13Z" style="fill:#263238;stroke:#263238;stroke-miterlimit:10"></path><path d="M212.07,263c-3.73-.05-8.57-.24-11.19-.9-4.66-1.17-14-7-21.27-5.83s-14.57,6.41-13.12,11.66,6.7,5.53,14.57,6.41c6.8.75,17.75,2.81,33.77,1.1a13.46,13.46,0,0,1-2.88-4.89A9.87,9.87,0,0,1,212.07,263Z" style="fill:none;stroke:#263238;stroke-linecap:round;stroke-linejoin:round"></path><path d="M213.74,132.35s-8.67-.53-11.83,13.67-.26,54.15,2.63,63.61,5.26,16.56,9.47,22.6,18.66,20.25,18.66,20.25,3.93,6.7,4.93,8,2.58,4.3,4.72,6.16a29,29,0,0,0,3.58,2.72s4,2.43,5.16,1.57-1-2.14-1-2.14l-4.58-8,1.58-.14,6,6.87s1.86,2,2.43,1.57a3.42,3.42,0,0,0,.58-2.86c-.29-.57-6-8.88-6-8.88s3.3,3,4.87,4.58,3.15,2.72,3.58,2.44a1.81,1.81,0,0,0,.14-2.44c-.71-1.14-9.73-12.88-9.73-12.88s5.58-1.29,6.58-1.72,3.15-2.14,3-3-1.43-.43-2.43.14a15.72,15.72,0,0,1-5,1c-1,0-6,0-8.31.72a15,15,0,0,1-4,.86c-.58,0-12.46-25.48-12.6-26.2S220.42,190.33,219,185s-4.44-23.61-4.44-23.61" style="fill:#C53F3F;stroke:#263238;stroke-miterlimit:10"></path><path d="M255.49,269.06a3.42,3.42,0,0,0,.58-2.86c-.29-.57-6-8.88-6-8.88s3.3,3,4.87,4.58,3.15,2.72,3.58,2.44a1.81,1.81,0,0,0,.14-2.44c-.71-1.14-9.73-12.88-9.73-12.88s5.58-1.29,6.58-1.72,3.15-2.14,3-3-1.43-.43-2.43.14a15.72,15.72,0,0,1-5,1c-1,0-6,0-8.31.72a15,15,0,0,1-4,.86c-.38,0-5.55-10.81-9.15-18.55a54.18,54.18,0,0,0-13.34,6.66c5.65,6.78,16.41,17.35,16.41,17.35s3.93,6.7,4.93,8,2.58,4.3,4.72,6.16a29,29,0,0,0,3.58,2.72s4,2.43,5.16,1.57-1-2.14-1-2.14l-4.58-8,1.58-.14,6,6.87S254.92,269.49,255.49,269.06Z" style="fill:#fff;stroke:#263238;stroke-miterlimit:10"></path><path d="M247.13,269.76s-4.54-4.93-5.92-8.28" style="fill:none;stroke:#263238;stroke-linecap:round;stroke-linejoin:round"></path><ellipse cx="238.98" cy="86.22" rx="10.78" ry="11.7" style="fill:#fff;stroke:#263238;stroke-miterlimit:10"></ellipse><path d="M250.28,52.7s-12.09,3.16-12.35,7.36.52,9.46.52,12.36-15.77,34.69-14.72,37.32,8.41,8.94,22.08,11.31,23.13,4.73,36.54.26,23.39-10.78,23.92-16.83-11.3-30.75-16-37.32-5-8.41-12.09-11.83S260.53,48.23,250.28,52.7Z" style="fill:#263238;stroke:#263238;stroke-miterlimit:10"></path><path d="M241.61,110.79V126.3s-4.74,6.84-1.84,14.46,11.3,8.94,16,2.89,7.36-17.35,7.36-17.35l.26-20Z" style="fill:#fff;stroke:#263238;stroke-miterlimit:10"></path><polygon points="258.34 108.09 241.88 118.89 241.61 110.79 258.34 108.09" style="fill:#263238;stroke:#263238;stroke-miterlimit:10"></polygon><path d="M241.08,66.9s-10.25,24.18-9.2,27.6,2.89,16.56,6.57,17.87,23.66-2.89,26-4.73,8.15-12.36,8.68-15S267.63,64.79,266.58,64,244.76,64,241.08,66.9Z" style="fill:#fff;stroke:#263238;stroke-miterlimit:10"></path><path d="M247.39,85.56s-5.52,6-6.57,7.1-.27,3.94,1.84,3.94a25.13,25.13,0,0,0,3.68-.26" style="fill:none;stroke:#263238;stroke-linecap:round;stroke-linejoin:round"></path><path d="M237.66,95.81s2.11,4.21,5.52,5.26,7.89-.53,7.89-.53" style="fill:none;stroke:#263238;stroke-linecap:round;stroke-linejoin:round"></path><path d="M255.54,87.4s1,3.94,6.31,2.89" style="fill:none;stroke:#263238;stroke-linecap:round;stroke-linejoin:round"></path><path d="M240,80.56a4.23,4.23,0,0,0,6.31,2.37" style="fill:none;stroke:#263238;stroke-linecap:round;stroke-linejoin:round"></path><path d="M259.22,81.35s5,.79,6.31,7.1" style="fill:none;stroke:#263238;stroke-linecap:round;stroke-linejoin:round"></path><path d="M249.49,77.41a7.67,7.67,0,0,0-8.67-1.58" style="fill:none;stroke:#263238;stroke-linecap:round;stroke-linejoin:round"></path><path d="M282.35,90.55s2.1-23.13-4.21-35.22a14.56,14.56,0,0,1,9.2,7.89s2.89,18.92-1.57,31Z" style="fill:#fff;stroke:#263238;stroke-miterlimit:10"></path><ellipse cx="279.19" cy="99.88" rx="10.78" ry="11.7" style="fill:#fff;stroke:#263238;stroke-miterlimit:10"></ellipse><ellipse cx="282.35" cy="100.67" rx="7.36" ry="7.99" style="fill:#fff;stroke:#263238;stroke-miterlimit:10"></ellipse><path d="M286.82,127.35a17.07,17.07,0,0,1,13.93,11c3.15,8.42,2.1,18.67-3.16,35s-14.72,30-17.87,31-13.41-33.64-13.67-34.43-10-43.64-9.46-46.79,14.72-5.79,14.72-5.79l5.52-7.62s1.31-1.31.79,1.32a32.07,32.07,0,0,1-2.63,6.57s5.78-7.33,6.57-8.15a4.82,4.82,0,0,1,2.37-1,2.38,2.38,0,0,0,.23,1c.26.65-.62,1.85-.62,1.85s3-3.53,3.66-3.14.91,1.56.91,2.6-4.63,8.59-5.76,10.6-18.28,8.63-18.28,8.63l17.49,35.27,1.05-11.31" style="fill:#C53F3F;stroke:#263238;stroke-miterlimit:10"></path><path d="M278.38,158.79l-14.31-28.85s17.15-6.62,18.28-8.63,5.76-9.56,5.76-10.6-.26-2.21-.91-2.6-3.66,3.14-3.66,3.14.88-1.2.62-1.85a2.38,2.38,0,0,1-.23-1,4.82,4.82,0,0,0-2.37,1c-.79.82-6.57,8.15-6.57,8.15a32.07,32.07,0,0,0,2.63-6.57c.52-2.63-.79-1.32-.79-1.32l-5.52,7.62s-14.2,2.63-14.72,5.79c-.42,2.49,5.54,29.65,8.21,41.42Z" style="fill:#fff;stroke:#263238;stroke-miterlimit:10"></path><path d="M283.54,111.25s-5.09,8.79-5.4,9.25" style="fill:none;stroke:#263238;stroke-linecap:round;stroke-linejoin:round"></path><line x1="287.86" y1="110.17" x2="281.07" y2="120.5" style="fill:none;stroke:#263238;stroke-linecap:round;stroke-linejoin:round"></line><line x1="274.99" y1="117.63" x2="273.36" y2="118.96" style="fill:none;stroke:#263238;stroke-linecap:round;stroke-linejoin:round"></line><line x1="296.84" y1="304.06" x2="290.2" y2="304.06" style="fill:none;stroke:#263238;stroke-linecap:round;stroke-linejoin:round;stroke-width:4px"></line><path d="M276.83,114.35v234.4a12.56,12.56,0,0,0,12.56,12.56h0A12.56,12.56,0,0,0,302,348.75V306.27a2.2,2.2,0,0,0-2.2-2.21h-2.91" style="fill:none;stroke:#263238;stroke-linecap:round;stroke-linejoin:round"></path></g><g id="freepik--Floor--inject-51"><line x1="44.86" y1="464.27" x2="476.29" y2="464.27" style="fill:none;stroke:#263238;stroke-linecap:round;stroke-linejoin:round"></line><line x1="12.16" y1="464.27" x2="37.91" y2="464.27" style="fill:none;stroke:#263238;stroke-linecap:round;stroke-linejoin:round"></line></g></svg>