<?xml version="1.0" standalone="no"?><svg xmlns="http://www.w3.org/2000/svg" viewBox="0 0 1440 320"><path fill="#0099ff" fill-opacity="1" d="M0,256L20,218.7C40,181,80,107,120,117.3C160,128,200,224,240,272C280,320,320,320,360,298.7C400,277,440,235,480,202.7C520,171,560,149,600,165.3C640,181,680,235,720,234.7C760,235,800,181,840,154.7C880,128,920,128,960,154.7C1000,181,1040,235,1080,234.7C1120,235,1160,181,1200,165.3C1240,149,1280,171,1320,176C1360,181,1400,171,1420,165.3L1440,160L1440,0L1420,0C1400,0,1360,0,1320,0C1280,0,1240,0,1200,0C1160,0,1120,0,1080,0C1040,0,1000,0,960,0C920,0,880,0,840,0C800,0,760,0,720,0C680,0,640,0,600,0C560,0,520,0,480,0C440,0,400,0,360,0C320,0,280,0,240,0C200,0,160,0,120,0C80,0,40,0,20,0L0,0Z"></path></svg>